<?xml version="1.0" standalone="no"?>
<!DOCTYPE svg PUBLIC "-//W3C//DTD SVG 20010904//EN"
 "http://www.w3.org/TR/2001/REC-SVG-20010904/DTD/svg10.dtd">
<svg version="1.0" xmlns="http://www.w3.org/2000/svg"
 width="512.000000pt" height="512.000000pt" viewBox="0 0 512.000000 512.000000"
 preserveAspectRatio="xMidYMid meet">
<metadata>
Created by potrace 1.11, written by Peter Selinger 2001-2013
</metadata>
<g transform="translate(0.000000,512.000000) scale(0.100000,-0.100000)"
fill="#000000" stroke="none">
<path d="M1820 5099 c-116 -22 -239 -61 -349 -110 l-72 -32 82 -83 82 -83 -59
-16 c-115 -31 -210 -67 -321 -120 -105 -50 -115 -53 -150 -43 -51 14 -153 3
-201 -21 -96 -49 -146 -119 -161 -224 -10 -67 -11 -69 -93 -155 -160 -169
-315 -389 -433 -615 l-67 -127 167 0 167 0 -32 -52 c-163 -274 -292 -683 -350
-1119 -24 -184 -37 -399 -24 -399 6 0 62 17 125 39 l116 39 6 -127 c16 -300
102 -670 210 -904 28 -60 93 -179 113 -205 1 -2 57 33 124 78 67 45 123 80
125 78 1 -2 43 -57 93 -123 96 -128 221 -262 339 -362 73 -62 215 -163 230
-163 5 0 44 35 87 79 l78 79 102 -68 c190 -128 392 -227 586 -288 149 -47 207
-56 276 -42 207 42 515 176 733 320 l124 81 82 -81 82 -81 69 47 c108 75 201
154 305 261 92 93 227 257 265 322 l17 29 119 -80 c66 -44 125 -77 132 -75 15
6 115 198 154 298 85 214 153 542 169 815 3 63 7 114 7 114 1 0 55 -18 121
-40 65 -22 121 -38 124 -35 8 8 -18 307 -39 451 -57 384 -153 700 -300 982
l-70 132 165 0 165 0 -31 63 c-126 250 -304 507 -482 693 -66 70 -69 75 -78
140 -15 106 -65 176 -161 225 -48 24 -150 35 -201 21 -35 -10 -45 -7 -140 39
-82 39 -202 82 -376 135 -10 3 11 31 63 83 43 44 76 84 72 89 -10 16 -210 92
-311 117 -281 72 -528 55 -735 -50 -76 -39 -119 -36 -226 13 -135 62 -189 73
-359 78 -120 3 -171 -1 -255 -17z m1615 -915 c76 -26 145 -76 242 -177 389
-407 654 -1191 718 -2122 10 -143 -10 -306 -45 -379 -124 -256 -608 -594
-1064 -742 -82 -27 -89 -31 -108 -69 -32 -61 -164 -187 -229 -217 -114 -53
-146 -58 -387 -58 -244 0 -285 6 -394 61 -72 36 -169 126 -213 198 -35 56 -37
57 -123 85 -469 153 -957 499 -1073 760 -27 63 -42 227 -34 381 l7 129 18 -58
c26 -82 79 -157 184 -261 97 -96 292 -248 307 -239 5 3 9 38 9 77 0 166 54
653 106 961 106 631 279 1217 470 1598 44 87 45 88 82 88 109 -1 312 -66 510
-166 l144 -72 111 58 c308 162 588 222 762 164z"/>
<path d="M1657 2716 c-117 -44 -177 -138 -177 -281 0 -176 104 -291 261 -289
97 1 187 62 227 153 20 46 22 211 3 265 -17 49 -73 112 -125 138 -51 26 -139
33 -189 14z m127 -97 c20 -16 26 -29 26 -59 0 -70 -72 -103 -126 -57 -20 17
-27 33 -27 57 0 24 7 40 27 57 34 28 65 29 100 2z"/>
<path d="M3320 2721 c-78 -25 -147 -89 -171 -157 -19 -54 -17 -219 3 -265 73
-167 295 -207 417 -74 54 59 75 132 69 240 -8 119 -51 191 -142 237 -43 22
-136 32 -176 19z m116 -104 c20 -17 27 -33 27 -57 0 -24 -7 -40 -27 -57 -34
-28 -65 -29 -100 -2 -37 29 -37 89 0 118 35 27 66 26 100 -2z"/>
<path d="M2117 1679 c-36 -28 -54 -88 -37 -128 16 -39 227 -215 298 -248 116
-54 247 -54 362 0 71 34 269 198 294 243 16 31 17 41 7 74 -6 21 -23 48 -38
59 -25 20 -37 21 -443 21 -406 0 -418 -1 -443 -21z"/>
<path d="M1559 1459 c-14 -5 -32 -21 -39 -34 -26 -49 6 -230 60 -335 60 -117
175 -225 305 -285 197 -91 427 -70 612 56 52 36 74 36 126 0 141 -96 326 -134
489 -100 168 35 349 174 428 329 54 105 86 286 60 335 -25 46 -95 52 -130 10
-7 -9 -19 -55 -26 -102 -31 -209 -167 -363 -360 -409 -130 -30 -248 -7 -377
75 -124 78 -170 78 -294 0 -129 -82 -247 -105 -377 -75 -194 46 -329 200 -360
411 -17 111 -51 148 -117 124z"/>
</g>
</svg>
